<svg width="957" height="421" viewBox="0 0 957 421" fill="none" xmlns="http://www.w3.org/2000/svg">
<path d="M187.818 313.92H163.784C163.614 311.932 163.159 310.128 162.42 308.509C161.71 306.889 160.716 305.497 159.438 304.332C158.188 303.139 156.668 302.23 154.878 301.605C153.088 300.952 151.057 300.625 148.784 300.625C144.807 300.625 141.44 301.591 138.685 303.523C135.957 305.455 133.884 308.224 132.463 311.832C131.071 315.44 130.375 319.773 130.375 324.83C130.375 330.17 131.085 334.645 132.506 338.253C133.955 341.832 136.043 344.531 138.77 346.349C141.497 348.139 144.778 349.034 148.614 349.034C150.801 349.034 152.761 348.764 154.494 348.224C156.227 347.656 157.733 346.847 159.011 345.795C160.29 344.744 161.327 343.48 162.122 342.003C162.946 340.497 163.5 338.807 163.784 336.932L187.818 337.102C187.534 340.795 186.497 344.56 184.707 348.395C182.918 352.202 180.375 355.724 177.08 358.963C173.812 362.173 169.764 364.759 164.935 366.719C160.105 368.679 154.494 369.659 148.102 369.659C140.091 369.659 132.903 367.94 126.54 364.503C120.205 361.065 115.19 356.009 111.497 349.332C107.832 342.656 106 334.489 106 324.83C106 315.114 107.875 306.932 111.625 300.284C115.375 293.608 120.432 288.565 126.795 285.156C133.159 281.719 140.261 280 148.102 280C153.614 280 158.685 280.753 163.315 282.259C167.946 283.764 172.009 285.966 175.503 288.864C178.997 291.733 181.81 295.27 183.94 299.474C186.071 303.679 187.364 308.494 187.818 313.92Z" fill="#142E8F"/>
<path d="M283.113 324.83C283.113 334.545 281.224 342.741 277.445 349.418C273.667 356.065 268.567 361.108 262.147 364.545C255.727 367.955 248.567 369.659 240.67 369.659C232.715 369.659 225.528 367.94 219.107 364.503C212.715 361.037 207.63 355.98 203.852 349.332C200.102 342.656 198.227 334.489 198.227 324.83C198.227 315.114 200.102 306.932 203.852 300.284C207.63 293.608 212.715 288.565 219.107 285.156C225.528 281.719 232.715 280 240.67 280C248.567 280 255.727 281.719 262.147 285.156C268.567 288.565 273.667 293.608 277.445 300.284C281.224 306.932 283.113 315.114 283.113 324.83ZM258.738 324.83C258.738 319.602 258.042 315.199 256.65 311.619C255.286 308.011 253.255 305.284 250.556 303.438C247.886 301.562 244.59 300.625 240.67 300.625C236.749 300.625 233.44 301.562 230.741 303.438C228.07 305.284 226.039 308.011 224.647 311.619C223.283 315.199 222.602 319.602 222.602 324.83C222.602 330.057 223.283 334.474 224.647 338.082C226.039 341.662 228.07 344.389 230.741 346.264C233.44 348.111 236.749 349.034 240.67 349.034C244.59 349.034 247.886 348.111 250.556 346.264C253.255 344.389 255.286 341.662 256.65 338.082C258.042 334.474 258.738 330.057 258.738 324.83Z" fill="#142E8F"/>
<path d="M369.587 281.193V368.466H349.814L318.28 322.614H317.768V368.466H294.075V281.193H314.189L345.212 326.875H345.893V281.193H369.587Z" fill="#142E8F"/>
<path d="M378.408 300.284V281.193H454.26V300.284H428.01V368.466H404.658V300.284H378.408Z" fill="#142E8F"/>
<path d="M463.177 368.466V281.193H500.847C507.325 281.193 512.992 282.372 517.85 284.73C522.708 287.088 526.486 290.483 529.185 294.915C531.884 299.347 533.234 304.659 533.234 310.852C533.234 317.102 531.842 322.372 529.058 326.662C526.302 330.952 522.424 334.19 517.424 336.378C512.452 338.565 506.643 339.659 499.995 339.659H477.495V321.25H495.222C498.006 321.25 500.379 320.909 502.339 320.227C504.327 319.517 505.847 318.395 506.898 316.861C507.978 315.327 508.518 313.324 508.518 310.852C508.518 308.352 507.978 306.321 506.898 304.759C505.847 303.168 504.327 302.003 502.339 301.264C500.379 300.497 498.006 300.114 495.222 300.114H486.87V368.466H463.177ZM514.313 328.409L536.131 368.466H510.393L489.086 328.409H514.313Z" fill="#142E8F"/>
<path d="M627.879 324.83C627.879 334.545 625.989 342.741 622.211 349.418C618.433 356.065 613.333 361.108 606.913 364.545C600.492 367.955 593.333 369.659 585.435 369.659C577.481 369.659 570.293 367.94 563.873 364.503C557.481 361.037 552.396 355.98 548.617 349.332C544.867 342.656 542.992 334.489 542.992 324.83C542.992 315.114 544.867 306.932 548.617 300.284C552.396 293.608 557.481 288.565 563.873 285.156C570.293 281.719 577.481 280 585.435 280C593.333 280 600.492 281.719 606.913 285.156C613.333 288.565 618.433 293.608 622.211 300.284C625.989 306.932 627.879 315.114 627.879 324.83ZM603.504 324.83C603.504 319.602 602.808 315.199 601.415 311.619C600.052 308.011 598.021 305.284 595.322 303.438C592.651 301.562 589.356 300.625 585.435 300.625C581.515 300.625 578.205 301.562 575.506 303.438C572.836 305.284 570.805 308.011 569.413 311.619C568.049 315.199 567.367 319.602 567.367 324.83C567.367 330.057 568.049 334.474 569.413 338.082C570.805 341.662 572.836 344.389 575.506 346.264C578.205 348.111 581.515 349.034 585.435 349.034C589.356 349.034 592.651 348.111 595.322 346.264C598.021 344.389 600.052 341.662 601.415 338.082C602.808 334.474 603.504 330.057 603.504 324.83Z" fill="#142E8F"/>
<path d="M638.841 368.466V281.193H662.534V349.375H697.818V368.466H638.841Z" fill="#142E8F"/>
<path d="M922.2 389.743C906.35 404.547 888.83 415.606 867.56 419.745C863.99 420.441 860.28 420.831 856.65 420.737C855.01 420.694 852.4 419.409 852.05 418.168C851.66 416.817 852.95 414.33 854.26 413.272C858.01 410.256 862.28 407.9 866.08 404.953C883.28 391.634 894.66 373.865 904.55 354.658C897.88 357.151 891.69 359.95 885.24 361.768C873.12 365.18 861.67 364.257 852.82 353.961C845.46 345.399 844.79 335.187 846.89 324.711C852.31 297.649 879.23 270.091 911.57 271.084C936.49 271.85 953.8 287.767 955.77 312.826C957.66 336.799 948.46 357.035 934.7 375.672C931.06 380.605 926.56 384.906 922.2 389.743ZM918.67 306.699C918.63 304.706 918.75 302.692 918.51 300.722C916.94 287.748 908.38 284.115 897.91 292.026C889.7 298.221 885.65 306.882 884.83 316.82C883.51 332.637 894.17 344.821 908.95 344.886C913.74 332.912 917.89 320.718 918.67 306.699Z" fill="#E3211C"/>
<path d="M802.57 388.12C786.83 403.869 768.98 415.276 747.237 419.729C743.365 420.522 739.318 420.622 735.347 420.663C734.124 420.676 731.917 419.504 731.859 418.745C731.74 417.164 732.418 415.247 733.398 413.938C734.337 412.685 736.067 412.02 737.456 411.108C758.608 397.227 771.72 376.911 782.79 355.407C774.15 358.091 765.723 361.865 756.926 363.203C738.09 366.066 724.255 352.686 725.031 333.575C726.129 306.579 748.487 279.142 774.85 272.717C786.28 269.931 797.67 270.475 808.68 274.794C826.42 281.758 833.45 296.293 834.62 313.975C836.24 338.376 826.09 358.921 811.71 377.734C808.99 381.297 805.8 384.503 802.57 388.12ZM783.79 344.765C785.31 344.374 787.88 344.376 788.2 343.532C793.62 329.088 799.05 314.579 796.73 298.665C795.16 287.88 787.51 284.445 778.47 290.566C770.64 295.869 766.524 303.618 764.508 312.705C761.025 328.406 767.6 339.766 783.79 344.765Z" fill="#E3211C"/>
<path d="M129.507 2.673C130.575 2.647 131.644 2.62199 133.189 3.03399C138.079 6.97699 142.964 5.289 147.631 5.123C146.986 8.808 146.624 12.167 145.856 15.429C145.436 17.211 144.787 19.624 143.456 20.393C136.283 24.536 132.555 31.465 135.139 39.513C137.161 45.811 140.731 51.613 143.458 57.938C142.826 59.22 142.348 60.199 142.043 60.825C137.462 59.496 133.274 57.69 128.931 57.168C123.185 56.478 117.319 56.793 111.131 56.719C110.01 56.709 109.262 56.655 108.401 56.22C104.3 55.273 100.318 54.271 96.3241 54.225C86.4901 54.111 76.6511 54.436 66.5561 54.588C66.5561 65.769 66.5561 75.834 66.5561 85.9C66.5561 101.556 66.4961 117.212 66.6491 132.866C66.6641 134.433 67.9681 135.988 68.6401 137.593C68.6071 137.639 68.5221 137.565 68.7861 137.895C69.3571 138.35 69.6631 138.585 69.9691 138.586C87.7991 138.631 105.63 138.687 123.459 138.608C124.471 138.604 125.478 137.486 126.894 136.78C146.261 134.321 157.134 126.125 161.03 110.637C163.545 100.636 163.562 90.591 159.567 80.526C160.902 79.295 162.084 78.402 164.51 76.57C164.51 81.191 164.095 84.34 164.597 87.335C165.624 93.469 166.107 100.015 168.719 105.481C172.074 112.504 177.129 118.786 186.858 116.807C187.953 116.585 189.772 117.999 190.688 119.118C196.936 126.753 202.474 127.464 210.974 122.007C212.427 121.075 215.585 120.791 216.731 121.719C224.005 127.606 230.624 126.649 237.15 120.707C226.724 156.989 203.17 179.696 166.506 188.576C159.914 190.172 153.054 190.66 145.582 191.328C143.362 190.887 141.879 190.682 140.395 190.681C116.747 190.666 93.0981 190.677 69.0581 190.779C68.2821 192.723 67.5641 194.568 67.5621 196.413C67.5021 252.412 67.4721 308.411 67.5961 364.41C67.6051 368.51 66.5331 369.83 62.3151 369.779C44.1511 369.561 25.9821 369.576 7.81806 369.771C3.76806 369.815 2.31606 368.807 2.40706 364.528C2.67706 351.85 2.50307 339.163 2.50307 326.479C2.50307 309.566 2.63407 292.652 2.46607 275.74C2.30107 259.116 1.63906 242.495 1.56606 225.871C1.52106 215.589 2.43606 205.304 2.43306 195.02C2.42806 183.193 1.65006 171.366 1.64406 159.539C1.63906 148.253 2.30707 136.968 2.47007 125.679C2.62307 115.054 2.50307 104.426 2.50307 93.799C2.50307 67.799 2.49807 41.799 2.50507 15.799C2.50807 3.67099 2.52007 3.56799 14.5841 3.69299C40.1211 3.95799 65.6561 4.354 91.1921 4.664C94.6151 4.706 98.0481 4.67899 101.464 4.47999C110.815 3.93599 120.16 3.283 129.507 2.673ZM16.4971 226.687C16.4971 226.687 16.4641 226.662 15.7791 226.694C15.0301 227.071 14.2811 227.448 13.5271 227.739C13.5271 227.739 13.6131 227.753 12.8991 227.726C12.1101 228.088 11.3211 228.451 10.3081 229.244C10.0661 229.476 9.78007 229.619 9.03707 229.936C8.78907 230.161 8.61706 230.435 8.52706 231.491C8.54306 231.982 8.42807 232.85 8.59507 232.908C13.3341 234.568 10.5461 238.445 11.1491 241.312C11.4031 242.519 11.9461 243.666 12.7961 245.425C14.2091 245.693 15.6221 245.962 17.3651 246.8C19.4651 249.924 21.5101 247.74 24.1031 246.562C24.4301 246.111 24.7571 245.66 25.5371 244.714C26.3481 243.382 27.1591 242.05 27.9701 240.719C28.3461 240.799 28.7231 240.879 29.1001 240.96C28.9541 243.824 28.8081 246.688 28.6621 249.552C29.0591 249.692 29.4561 249.832 29.8531 249.972C30.4121 248.857 30.9711 247.742 31.5311 246.703C31.5311 246.703 31.4551 246.715 32.1551 246.599C32.6141 245.274 33.0731 243.95 33.5441 242.702C33.5441 242.702 33.4711 242.728 34.0891 242.373C34.5721 240.79 35.0551 239.207 35.5341 237.705C35.5341 237.705 35.4541 237.713 36.1541 237.647C36.6001 235.908 37.0461 234.169 37.4231 231.833C39.1231 224.301 39.1311 224.161 38.2671 220.282C38.2671 220.282 38.3291 220.476 39.0011 220.555C39.4811 220.17 39.9611 219.785 40.8961 218.885C42.5581 216.995 47.0841 217.788 46.2801 213.159C43.9121 212.912 40.0101 215.32 41.2251 209.351C37.1871 210.999 33.8401 212.365 30.5001 213.673C30.5001 213.673 30.5551 213.691 29.8861 213.228C29.4271 213.728 28.9691 214.227 28.5041 214.678C28.5041 214.678 28.5371 214.713 28.0091 214.116C26.8281 212.29 25.6481 210.465 24.5371 208.648C24.5371 208.648 24.5431 208.718 24.2701 208.021C23.6951 206.385 23.3151 204.639 22.4771 203.151C21.9241 202.169 20.7131 201.559 19.1851 201C13.9001 204.024 12.7301 205.705 15.9811 210.96C19.0251 215.879 18.9941 220.593 18.5331 225.692C18.5331 225.692 18.5691 225.712 17.9641 225.743C17.4751 226.044 16.9861 226.345 16.4971 226.687Z" fill="#2FA852"/>
<path d="M656.475 2.801C680.651 7.614 700.401 18.764 711.365 41.952C713.94 47.396 715.377 53.38 717.506 59.606C700.626 63.758 684.756 67.66 668.474 71.664C666.094 61.035 660.632 53.196 649.74 49.181C642 44.301 634.073 45.286 626.268 46.424C623.921 46.767 621.8 48.66 619.576 49.843C619.576 49.843 619.571 49.75 619.241 49.741C618.126 50.409 617.34 51.084 616.554 51.759C616.554 51.759 616.519 51.682 616.225 51.724C615.576 52.219 615.221 52.673 614.867 53.127C614.867 53.127 614.746 52.988 614.528 53.021C614.191 53.402 614.072 53.751 613.954 54.099C613.954 54.099 613.702 53.692 613.506 53.887C613.077 54.661 612.843 55.24 612.609 55.818C612.609 55.818 612.565 55.737 612.354 55.862C612.046 56.337 611.951 56.685 611.855 57.034C611.855 57.034 611.819 56.88 611.486 56.961C607.327 62.155 607.479 67.326 611.584 71.646C611.584 71.646 611.508 71.656 611.542 71.942C611.936 72.693 612.297 73.157 612.657 73.62C612.657 73.62 612.569 73.621 612.587 73.914C613.04 74.606 613.475 75.006 613.911 75.405C613.911 75.405 613.75 75.459 613.733 75.756C614.38 76.544 615.045 77.036 615.709 77.528C615.709 77.528 615.59 77.595 615.609 77.907C616.919 79.039 618.21 79.857 619.501 80.677C619.843 80.685 620.129 80.817 620.495 81.657C621.642 82.68 622.652 83.117 623.663 83.554C623.663 83.554 623.576 83.592 623.711 83.831C624.43 84.252 625.013 84.433 625.597 84.616C625.597 84.616 625.529 84.674 625.577 84.991C628.289 86.404 630.953 87.5 633.617 88.595C633.617 88.595 633.544 88.646 633.678 88.93C634.147 89.574 634.416 90.099 634.829 90.266C649.003 95.998 663.189 101.701 677.395 107.353C677.637 107.449 678.148 106.87 678.533 106.606C679.085 106.763 679.638 106.92 680.52 107.588C681.44 108.264 682.03 108.429 682.62 108.595C682.62 108.595 682.547 108.639 682.698 108.871C683.431 109.274 684.013 109.445 684.596 109.615C684.596 109.615 684.526 109.676 684.575 109.99C686.961 111.395 689.3 112.486 691.639 113.577C691.639 113.577 691.544 113.647 691.593 113.96C692.645 114.703 693.65 115.133 694.655 115.563C694.655 115.563 694.553 115.634 694.6 115.944C695.402 116.544 696.157 116.835 696.912 117.125C696.912 117.125 696.766 117.286 696.824 117.608C697.854 118.417 698.827 118.904 699.799 119.392C699.799 119.392 699.684 119.502 699.763 119.718C700.192 120.06 700.542 120.185 700.892 120.309C700.892 120.309 700.601 120.494 700.74 120.683C701.228 120.944 701.577 121.017 701.925 121.09C701.925 121.09 701.949 121.188 701.946 121.509C702.508 122.096 703.072 122.363 703.637 122.629C705.514 124.432 707.392 126.236 709.422 128.662C710.007 129.672 710.438 130.059 710.87 130.447C710.87 130.447 710.743 130.477 710.717 130.772C711.325 131.585 711.959 132.103 712.593 132.622C712.593 132.622 712.508 132.66 712.524 132.991C713.225 134.09 713.909 134.857 714.592 135.625C714.592 135.625 714.508 135.658 714.523 136.009C716.538 141.546 719.484 146.584 720.325 151.952C721.766 161.14 721.89 170.534 722.566 179.841C722.566 179.841 722.563 180.259 722.261 180.707C719.837 187.702 717.715 194.25 715.593 200.798C715.593 200.798 715.543 200.722 715.336 200.855C715.047 201.339 714.966 201.689 714.885 202.04C714.885 202.04 714.863 201.812 714.532 201.922C713.785 203.035 713.37 204.036 712.955 205.038C712.955 205.038 712.546 204.999 712.415 205.034C712.062 205.655 711.839 206.241 711.616 206.826C711.616 206.826 711.55 206.724 711.242 206.77C710.594 207.559 710.254 208.303 709.914 209.046C709.914 209.046 709.625 208.909 709.454 208.979C709.029 209.606 708.775 210.163 708.521 210.721C708.504 211.058 708.364 211.334 707.628 211.741C706.967 212.24 706.778 212.544 706.589 212.848C706.589 212.848 706.577 212.755 706.256 212.77C704.82 214.158 703.705 215.531 702.591 216.905C702.103 217.452 701.615 217.999 700.532 218.65C699.554 219.198 699.172 219.642 698.789 220.085C698.789 220.085 698.721 219.944 698.5 219.98C698.093 220.339 697.906 220.661 697.719 220.984C697.719 220.984 697.671 220.861 697.454 220.918C697.025 221.272 696.813 221.569 696.601 221.866C696.601 221.866 696.584 221.768 696.29 221.781C695.629 222.247 695.263 222.702 694.897 223.156C694.897 223.156 694.482 222.885 694.323 222.9C693.43 223.666 692.696 224.417 691.962 225.168C691.962 225.168 691.865 225.104 691.516 225.018C689.945 225.872 688.724 226.813 687.503 227.754C687.503 227.754 687.363 227.895 686.934 227.9C686.182 228.189 685.859 228.474 685.535 228.757C685.535 228.757 685.528 228.681 685.156 228.691C680.691 230.586 676.598 232.472 672.505 234.357C640.928 243.661 609.856 242.688 580.381 227.477C555.667 214.723 542.998 193.447 541.143 165.135C557.151 161.221 572.881 157.374 589.092 153.41C589.339 155.441 589.507 157.178 589.768 158.901C591.651 171.311 598.077 180.501 609.421 185.982C621.559 191.846 634.289 194.533 647.674 191.513C655.324 189.787 661.7 186.097 663.695 177.647C665.678 169.252 662.16 162.421 655.657 158.158C647.537 152.835 638.599 148.638 629.705 144.643C615.333 138.189 599.961 133.617 586.342 125.901C554.136 107.653 543.383 71.724 559.226 37.729C560.372 36.128 560.905 34.849 561.439 33.569C561.439 33.569 561.473 33.642 561.687 33.517C562.032 33.047 562.162 32.702 562.292 32.357C562.292 32.357 562.32 32.547 562.553 32.443C562.998 31.742 563.211 31.145 563.424 30.547C563.424 30.547 563.451 30.629 563.668 30.512C564.026 30.052 564.167 29.709 564.309 29.367C564.309 29.367 564.336 29.552 564.562 29.452C565.021 28.776 565.255 28.2 565.488 27.625C565.477 27.274 565.611 26.994 566.488 26.692C567.804 25.522 568.522 24.444 569.241 23.366C569.241 23.366 569.325 23.487 569.549 23.431C569.955 23.034 570.135 22.694 570.316 22.353C570.316 22.353 570.356 22.526 570.565 22.452C570.962 22.043 571.15 21.707 571.338 21.371C571.338 21.371 571.338 21.514 571.647 21.528C572.772 20.535 573.589 19.525 574.405 18.517C574.405 18.517 574.439 18.617 574.642 18.52C575.053 18.133 575.26 17.842 575.468 17.551C575.657 17.29 575.847 17.029 576.641 16.711C577.985 15.97 578.724 15.285 579.463 14.599C579.463 14.599 579.487 14.675 579.815 14.659C580.932 13.987 581.72 13.331 582.507 12.676C582.507 12.676 582.661 12.51 583.098 12.487C583.848 12.158 584.16 11.851 584.472 11.545C584.472 11.545 584.459 11.631 584.808 11.633C586.408 11.257 587.717 11.012 588.899 10.482C606.827 2.446 625.544 0.191007 644.96 2.52601C648.755 2.98301 652.634 2.728 656.475 2.801Z" fill="#2EA851"/>
<path d="M848.53 239.55C844.49 239.604 840.45 239.658 835.9 239.313C834.43 239.125 833.47 239.338 832.51 239.55C831.44 239.602 830.36 239.655 828.79 239.241C822.52 238.259 816.74 237.742 810.52 237.186C810.52 236.001 810.52 234.371 810.52 232.742C810.52 214.125 810.39 195.508 810.55 176.893C810.68 161.477 811.18 146.064 811.38 130.648C811.4 129.67 810.25 128.677 809.65 127.691C809.6 126.932 809.55 126.173 809.86 125.001C810.52 124.272 810.81 123.956 811.11 123.639C810.63 123.323 810.14 123.008 809.66 122.692C809.61 120.309 809.56 117.927 809.97 115.001C810.79 113.761 811.44 113.064 811.44 112.365C811.51 93.534 811.54 74.703 811.41 55.873C811.4 54.827 810.02 53.791 809.27 52.75C809.27 52.75 808.87 52.808 808.39 52.432C806.1 51.926 804.29 51.685 802.48 51.683C784 51.655 765.512 51.594 747.029 51.731C743.609 51.756 742.328 50.814 742.438 47.241C742.821 34.785 743.297 22.312 742.952 9.866C742.837 5.688 743.605 4.631 747.541 4.635C811.65 4.702 875.77 4.71501 939.88 4.60201C943.76 4.59601 944.62 5.92701 944.56 9.51801C944.38 22.005 944.36 34.499 944.58 46.984C944.64 50.777 943.41 51.789 939.73 51.745C924.41 51.562 909.09 51.642 893.77 51.711C892.02 51.719 890.28 52.267 888.53 52.565C888.08 52.615 887.62 52.665 886.75 52.273C883.55 50.139 880.88 49.642 878.53 52.55C878.08 52.606 877.62 52.663 876.73 52.499C876.04 52.388 875.78 52.498 875.52 52.608C875.54 54.073 875.55 55.539 875.1 57.443C874.25 59.736 873.56 61.589 873.56 63.444C873.49 119.777 873.5 176.109 873.49 232.442C873.49 234.233 873.49 236.024 873.49 237.687C866.26 237.687 859.53 237.58 852.8 237.771C851.36 237.812 849.95 238.929 848.53 239.55Z" fill="#2EA852"/>
<path d="M143.612 57.636C140.73 51.613 137.161 45.811 135.138 39.513C132.554 31.465 136.283 24.536 143.455 20.393C144.786 19.624 145.435 17.211 145.855 15.429C146.623 12.167 146.985 8.808 147.806 5.004C148.316 4.319 148.451 4.072 148.501 3.778C149.236 3.652 149.972 3.525 151.27 3.659C160.572 6.407 169.539 8.29101 178.008 11.494C202.734 20.846 222.386 36.301 233.127 61.131C238.922 74.526 241.253 88.704 239.678 103.404C239.152 108.308 239.204 113.274 238.993 118.211C238.478 118.89 237.963 119.568 237.299 120.477C230.623 126.649 224.004 127.606 216.731 121.719C215.584 120.791 212.426 121.075 210.974 122.007C202.474 127.463 196.935 126.753 190.687 119.118C189.771 117.999 187.953 116.585 186.857 116.807C177.129 118.786 172.074 112.504 168.718 105.481C166.106 100.015 165.623 93.468 164.596 87.335C164.095 84.34 164.509 81.191 164.509 76.57C162.084 78.402 160.901 79.295 159.348 80.456C158.977 80.724 158.544 80.572 158.48 80.23C153.417 74.284 148.417 68.68 143.539 62.721C143.644 60.788 143.628 59.212 143.612 57.636ZM204.432 60.314C204.325 60.268 204.218 60.222 204.111 60.176C204.227 60.356 204.342 60.536 204.547 61.372C204.903 63.32 205.26 65.268 205.613 67.196C206.805 67.064 208.276 66.903 210.55 66.653C209.332 68.201 208.538 68.889 208.196 69.755C207.962 70.347 208.359 71.187 208.474 71.916C209.32 71.756 210.505 71.894 210.955 71.384C213.238 68.797 215.331 66.042 217.152 63.767C215.746 62.337 213.967 60.526 212.042 58.567C211.806 58.844 211.144 59.617 210.466 60.411C209.626 59.415 208.971 58.639 208.46 58.034C206.918 59.055 205.735 59.838 204.432 60.314ZM172.589 41.42C171.867 40.796 171.135 40.181 170.424 39.544C169.157 38.409 167.381 37.485 166.766 36.063C165.843 33.931 165.737 31.444 165.284 29.108C164.891 29.138 164.498 29.168 164.105 29.198C163.744 30.472 163.382 31.746 163.004 33.08C161.847 32.445 160.848 31.896 160.433 31.668C155.682 37.561 161.133 40.411 163.636 44.209C164.078 43.693 164.573 43.117 164.46 43.248C165.549 44.539 166.673 45.873 167.797 47.207C168.313 46.786 168.83 46.366 169.346 45.945C169.237 44.395 169.127 42.846 168.996 40.989C170.089 41.2 171.009 41.378 172.589 41.42ZM197.32 103.706C197.045 100.683 196.771 97.66 196.483 94.491C195.445 93.972 193.805 93.153 193.359 92.93C190.483 94.056 188.32 94.904 186.395 95.657C186.258 96.91 186.084 98.504 185.989 99.373C188.497 101.712 190.719 103.784 192.145 105.114C193.89 104.79 195.407 104.508 197.32 103.706ZM223.295 107.052C221.158 108.577 219.021 110.103 216.851 111.652C219.425 113.631 221.298 115.071 222.873 116.282C224.494 114.231 226.315 111.926 228.185 109.559C226.717 108.697 225.338 107.887 223.295 107.052Z" fill="#6C8271"/>
<path d="M376.513 50.645C365.055 42.908 356.812 32.1 348.645 21.252C347.675 19.962 347.601 17.998 347.111 16.346C348.484 15.994 349.855 15.341 351.229 15.335C402.994 15.094 454.76 14.911 506.526 14.728C507.331 14.725 508.135 14.811 509.306 14.876C509.306 26.82 509.306 38.565 508.59 50.162C506.893 49.9 505.912 49.686 504.93 49.685C463.519 49.668 422.107 49.66 380.695 49.71C379.301 49.711 377.907 50.32 376.513 50.645Z" fill="#2FA852"/>
<path d="M374.519 188.759C419.002 188.731 463.486 188.702 507.97 188.685C508.28 188.685 508.59 188.838 509.213 189.002C509.213 200.986 509.213 213.048 509.213 225.681C464.626 225.681 420.039 225.681 375.016 225.236C374.868 222.68 375.444 220.561 375.386 218.459C375.202 211.782 374.724 205.114 374.476 198.438C374.356 195.217 374.496 191.986 374.519 188.759Z" fill="#2DA751"/>
<path d="M239.283 118.034C239.205 113.273 239.153 108.307 239.678 103.403C241.253 88.703 238.923 74.525 233.128 61.13C222.387 36.3 202.735 20.845 178.009 11.493C169.54 8.29 160.573 6.406 151.631 3.56C160.111 -0.380001 168.371 1.716 176.471 5.19C178.746 6.165 180.83 7.58801 182.987 8.79801C190.49 0.257006 197.628 -0.493992 207.149 6.22501C208.508 7.18401 209.874 8.142 211.159 9.196C213.96 11.495 216.29 12.421 219.688 9.425C223.406 6.147 230.608 6.913 234.576 10.261C236.195 11.626 237.53 13.405 238.725 15.176C240.809 18.264 242.016 22.933 244.842 24.245C247.527 25.492 251.84 23.401 255.392 22.585C272.879 18.569 290.336 14.425 307.842 10.493C310.881 9.81 314.1 9.928 317.75 9.909C318.217 10.324 318.17 10.507 318.123 10.69C310.375 13.018 302.481 14.954 294.908 17.756C279.53 23.445 264.325 29.603 249.331 35.457C250.544 37.357 251.583 39.14 252.783 40.807C253.516 41.825 254.344 42.914 255.386 43.546C265.018 49.395 266.161 58.207 258.767 65.898C262.694 69.344 267.288 72.301 270.455 76.369C277.919 85.956 275.048 99.148 264.34 105.634C260.708 107.833 256.572 109.689 252.436 110.446C247.064 111.428 242.279 112.61 239.283 118.034Z" fill="#9F9B99"/>
<path d="M475.402 122.653C475.456 124.387 475.509 126.12 475.211 128.563C474.637 131.238 474.907 133.463 474.049 135.095C473.249 136.618 471.257 138.524 469.778 138.534C439.668 138.733 409.557 138.65 379.446 138.737C376.383 138.745 375.38 137.703 375.438 134.688C375.59 126.787 375.606 118.878 375.431 110.978C375.361 107.797 376.293 106.602 379.642 106.614C409.586 106.718 439.531 106.723 469.475 106.608C472.976 106.595 473.456 108.076 473.615 111.08C473.819 114.958 474.772 118.797 475.402 122.653Z" fill="#2EA852"/>
<path d="M129.114 2.57401C120.159 3.28301 110.815 3.936 101.464 4.48C98.047 4.679 94.615 4.70601 91.191 4.66401C65.655 4.35401 40.12 3.958 14.584 3.693C2.519 3.568 2.508 3.671 2.504 15.799C2.498 41.799 2.50301 67.799 2.50301 93.799C2.50301 104.426 2.62199 115.054 2.46899 125.679C2.30599 136.968 1.638 148.253 1.644 159.539C1.65 171.366 2.42801 183.193 2.43201 195.02C2.43601 205.304 1.52 215.589 1.565 225.871C1.638 242.495 2.3 259.116 2.465 275.74C2.634 292.652 2.502 309.566 2.502 326.479C2.502 339.163 2.67601 351.85 2.40601 364.528C2.31501 368.807 3.767 369.815 7.817 369.771C25.982 369.576 44.151 369.561 62.314 369.779C66.532 369.83 67.604 368.51 67.595 364.41C67.472 308.411 67.501 252.412 67.561 196.413C67.563 194.568 68.282 192.723 69.072 191.014C69.534 191.461 69.553 191.773 69.536 192.088C69.228 193.993 68.651 195.898 68.65 197.803C68.598 253.794 68.604 309.786 68.6 365.777C68.6 367.571 68.6 369.365 68.6 371.413C45.595 371.413 22.993 371.413 0 371.413C0 248.423 0 125.391 0 2.03701C0.712 1.92701 1.486 1.7 2.259 1.704C43.25 1.875 84.24 2.06501 125.23 2.26401C126.394 2.27001 127.557 2.40101 129.114 2.57401Z" fill="#36A956"/>
<path d="M295.887 47.049C300.45 39.694 305.012 32.339 310.295 24.844C320.776 24.96 330.537 25.255 340.3 25.392C341.027 25.402 341.769 24.277 342.504 23.68C347.809 31.388 353.115 39.096 358.533 47.169C358.646 47.534 358.478 47.714 358.029 47.675C355.099 47.758 352.59 47.678 350.145 48.035C331.999 50.68 313.915 50.576 295.887 47.049Z" fill="#857F81"/>
<path d="M361.3 219.598C364.914 219.992 367.951 221.41 368.247 225.405C368.536 229.299 365.331 230.685 362.339 231.866C350.827 236.408 338.66 237.465 326.554 237.02C316.168 236.638 305.839 234.578 295.499 233.153C293.884 232.93 292.308 232.229 290.783 231.586C287.828 230.339 284.635 229.002 284.963 225.063C285.286 221.184 288.502 220.234 292.297 219.568C292.902 219.607 293.325 219.786 293.294 220.171C295.041 221.954 296.615 224.054 298.629 224.639C312.074 228.546 325.909 228.357 339.677 227.42C345.566 227.02 351.422 225.414 357.147 223.83C358.543 223.444 359.366 220.986 360.676 219.426C360.899 219.371 361.3 219.598 361.3 219.598Z" fill="#857F81"/>
<path d="M888.99 52.635C890.28 52.267 892.02 51.719 893.77 51.711C909.09 51.642 924.41 51.562 939.73 51.745C943.41 51.789 944.64 50.777 944.58 46.984C944.36 34.499 944.37 22.005 944.56 9.51801C944.62 5.92701 943.76 4.59601 939.88 4.60201C875.77 4.71501 811.65 4.70199 747.54 4.63499C743.604 4.63099 742.836 5.688 742.951 9.866C743.296 22.311 742.82 34.785 742.437 47.241C742.327 50.814 743.607 51.756 747.028 51.731C765.511 51.594 784 51.655 802.48 51.683C804.29 51.685 806.1 51.926 808.21 52.356C786.04 52.656 763.578 52.656 740.832 52.656C740.832 36.197 740.832 19.818 740.832 3.09599C809.17 3.09599 877.21 3.09599 945.75 3.09599C945.75 19.392 945.75 35.902 945.75 52.705C927.02 52.705 908.24 52.705 888.99 52.635Z" fill="#209F44"/>
<path d="M292.805 59.664C291.779 57.209 290.222 54.813 289.935 52.275C289.776 50.871 291.745 49.227 293.32 47.989C296.222 49.092 298.502 50.193 300.905 50.654C316.71 53.691 332.628 53.375 348.504 51.505C351.93 51.102 355.159 49.021 358.478 47.713C358.478 47.713 358.646 47.533 358.731 47.444C364.446 49.663 365.059 52.428 361.012 59.211C360.254 59.247 359.872 59.039 359.101 58.847C337.307 63.676 315.91 62.872 294.262 58.753C293.606 59.048 293.205 59.356 292.805 59.664Z" fill="#7A8F82"/>
<path d="M475.467 122.191C474.771 118.798 473.818 114.96 473.614 111.081C473.456 108.077 472.976 106.596 469.475 106.609C439.531 106.725 409.586 106.719 379.641 106.615C376.293 106.603 375.361 107.798 375.431 110.979C375.605 118.879 375.59 126.788 375.437 134.689C375.379 137.704 376.382 138.746 379.446 138.737C409.557 138.65 439.668 138.734 469.778 138.535C471.256 138.525 473.248 136.62 474.049 135.096C474.907 133.464 474.637 131.239 475.13 128.991C475.401 132.511 475.401 136.313 475.401 140.412C441.281 140.412 407.281 140.412 373.074 140.412C373.074 128.53 373.074 116.804 373.074 104.867C407.199 104.867 441.078 104.867 475.532 104.867C475.532 110.539 475.532 116.134 475.467 122.191Z" fill="#209F44"/>
<path d="M848.99 239.614C849.95 238.929 851.36 237.812 852.8 237.771C859.53 237.58 866.26 237.687 873.49 237.687C873.49 236.024 873.49 234.233 873.49 232.442C873.5 176.109 873.49 119.777 873.56 63.444C873.56 61.59 874.25 59.736 875.01 57.785C875.34 102.773 875.28 147.857 875.23 192.942C875.21 206.75 875.23 220.559 875.23 234.368C875.23 235.989 875.23 237.611 875.23 239.678C866.33 239.678 857.89 239.678 848.99 239.614Z" fill="#209F44"/>
<path d="M292.787 60.138C293.205 59.356 293.605 59.049 294.256 59.215C294.504 111.019 294.515 162.35 294.45 213.681C294.448 215.716 293.717 217.75 293.325 219.785C293.325 219.785 292.902 219.606 292.676 219.577C292.56 217.73 292.767 215.911 292.768 214.092C292.781 162.932 292.773 111.772 292.787 60.138Z" fill="#007C30"/>
<path d="M359.49 58.833C359.873 59.041 360.255 59.248 360.845 59.57C361.063 112.69 361.073 165.695 361.192 219.149C361.301 219.598 360.9 219.371 360.51 219.067C359.914 216.807 359.529 214.85 359.528 212.893C359.491 161.54 359.494 110.187 359.49 58.833Z" fill="#007C30"/>
<path d="M318.168 11.134C318.169 10.507 318.216 10.324 318.178 9.87199C318.187 7.47299 318.282 5.344 318.389 2.938C323.658 2.938 328.836 2.938 334.573 2.938C334.573 7.898 334.573 12.785 334.117 18.186C328.599 18.71 323.537 18.719 318.452 18.469C318.347 18.057 318.265 17.904 318.184 17.751C318.194 15.693 318.204 13.636 318.168 11.134Z" fill="#132E90"/>
<path d="M318.476 18.728C323.538 18.719 328.6 18.71 334.133 18.649C337.026 20.203 339.449 21.811 342.188 23.549C341.77 24.276 341.027 25.401 340.301 25.391C330.537 25.254 320.776 24.959 310.568 24.665C312.374 22.717 314.626 20.806 317.453 18.86C318.03 18.825 318.476 18.728 318.476 18.728Z" fill="#4F504C"/>
<path d="M358.028 47.675C355.159 49.022 351.93 51.103 348.504 51.506C332.628 53.376 316.71 53.692 300.905 50.655C298.502 50.194 296.222 49.093 293.686 47.983C294.082 47.473 294.676 47.267 295.579 47.055C313.915 50.576 331.999 50.68 350.145 48.034C352.59 47.678 355.099 47.758 358.028 47.675Z" fill="#4F504C"/>
<path d="M809.579 128.154C810.249 128.676 811.4 129.669 811.38 130.647C811.18 146.063 810.68 161.476 810.55 176.892C810.39 195.507 810.52 214.124 810.52 232.741C810.52 234.37 810.52 236 810.52 237.185C816.74 237.741 822.52 238.258 828.4 239.161C822.22 239.547 815.94 239.547 809.52 239.547C809.52 202.382 809.519 165.5 809.579 128.154Z" fill="#209F44"/>
<path d="M376.957 50.807C377.907 50.32 379.301 49.711 380.695 49.71C422.107 49.66 463.519 49.668 504.93 49.685C505.912 49.686 506.893 49.9 508.175 50.299C464.784 50.712 421.093 50.84 376.957 50.807Z" fill="#209F44"/>
<path d="M656.097 2.685C652.634 2.727 648.755 2.983 644.96 2.526C625.544 0.191003 606.827 2.446 588.899 10.482C587.717 11.012 586.408 11.257 584.768 11.616C594.519 5.093 605.982 2.493 617.651 0.987002C630.373 -0.653998 643.13 -0.355 656.097 2.685Z" fill="#209F44"/>
<path d="M69.9558 192.175C69.5548 191.773 69.5348 191.461 69.4648 190.916C93.0978 190.677 116.747 190.666 140.396 190.681C141.879 190.682 143.363 190.887 145.155 191.269C125.41 191.744 105.356 191.948 85.3018 192.146C80.3258 192.195 75.3498 192.224 69.9558 192.175Z" fill="#209F44"/>
<path d="M809.4 53.197C810.02 53.79 811.41 54.826 811.41 55.872C811.54 74.702 811.51 93.533 811.45 112.364C811.44 113.063 810.79 113.76 810.06 114.56C809.7 96.472 809.72 78.281 809.73 60.089C809.73 57.941 809.6 55.793 809.4 53.197Z" fill="#209F44"/>
<path d="M374.097 188.742C374.495 191.986 374.354 195.217 374.474 198.438C374.722 205.114 375.2 211.782 375.385 218.459C375.443 220.561 374.866 222.68 374.549 225.192C373.911 225.052 372.778 224.516 372.775 223.973C372.7 212.571 372.745 201.168 372.819 189.766C372.821 189.417 373.379 189.072 374.097 188.742Z" fill="#46AC62"/>
<path d="M678.284 106.366C678.147 106.87 677.637 107.449 677.394 107.353C663.189 101.701 649.003 95.998 634.829 90.266C634.416 90.099 634.147 89.574 633.682 88.886C648.38 94.414 663.208 100.27 678.284 106.366Z" fill="#2DA751"/>
<path d="M722.905 179.635C721.889 170.535 721.766 161.141 720.325 151.953C719.483 146.585 716.538 141.547 714.553 135.975C723.358 149.035 726.178 163.662 722.905 179.635Z" fill="#2DA751"/>
<path d="M619.969 49.786C621.801 48.659 623.921 46.766 626.268 46.423C634.073 45.284 642 44.3 649.413 49.013C639.755 46.789 630.029 46.006 619.969 49.786Z" fill="#2DA751"/>
<path d="M715.861 200.583C717.714 194.251 719.836 187.702 722.237 180.914C720.388 187.238 718.26 193.803 715.861 200.583Z" fill="#2DA751"/>
<path d="M148.094 3.687C148.451 4.071 148.316 4.318 147.92 4.636C142.964 5.288 138.079 6.976 133.584 3.106C138.23 3.026 142.959 3.311 148.094 3.687Z" fill="#36A956"/>
<path d="M611.541 71.234C607.479 67.326 607.327 62.156 611.545 57.016C611.789 61.599 611.643 66.21 611.541 71.234Z" fill="#2DA751"/>
<path d="M672.855 234.291C676.597 232.472 680.689 230.587 685.183 228.717C681.457 230.563 677.331 232.394 672.855 234.291Z" fill="#2DA751"/>
<path d="M878.97 52.615C880.88 49.642 883.55 50.139 886.41 52.192C884.13 52.596 881.77 52.638 878.97 52.615Z" fill="#209F44"/>
<path d="M633.379 88.346C630.952 87.5 628.288 86.404 625.59 84.949C628.085 85.758 630.614 86.927 633.379 88.346Z" fill="#2DA751"/>
<path d="M691.439 113.303C689.299 112.485 686.96 111.394 684.59 109.946C686.785 110.736 689.013 111.883 691.439 113.303Z" fill="#2DA751"/>
<path d="M702.889 216.772C703.704 215.532 704.819 214.158 706.297 212.789C705.504 214.075 704.346 215.357 702.889 216.772Z" fill="#2DA751"/>
<path d="M687.828 227.708C688.723 226.813 689.944 225.873 691.523 225.077C690.64 226.034 689.397 226.848 687.828 227.708Z" fill="#2DA751"/>
<path d="M619.321 80.418C618.21 79.858 616.919 79.039 615.643 77.848C616.819 78.37 617.98 79.264 619.321 80.418Z" fill="#2DA751"/>
<path d="M568.955 23.506C568.521 24.445 567.802 25.522 566.715 26.614C567.121 25.633 567.895 24.639 568.955 23.506Z" fill="#209F44"/>
<path d="M574.106 18.623C573.588 19.526 572.772 20.535 571.584 21.494C572.078 20.539 572.942 19.634 574.106 18.623Z" fill="#209F44"/>
<path d="M832.88 239.615C833.47 239.338 834.43 239.125 835.44 239.233C834.75 239.595 834 239.637 832.88 239.615Z" fill="#209F44"/>
<path d="M561.169 33.77C560.906 34.849 560.372 36.129 559.477 37.497C559.709 36.381 560.304 35.176 561.169 33.77Z" fill="#209F44"/>
<path d="M713.203 204.859C713.369 204.036 713.784 203.034 714.575 202.027C714.451 202.909 713.952 203.794 713.203 204.859Z" fill="#2DA751"/>
<path d="M579.168 14.68C578.724 15.285 577.985 15.97 576.889 16.671C577.312 16.044 578.092 15.402 579.168 14.68Z" fill="#209F44"/>
<path d="M694.487 115.295C693.649 115.132 692.644 114.702 691.615 113.906C692.501 114.036 693.41 114.532 694.487 115.295Z" fill="#2DA751"/>
<path d="M699.652 119.121C698.825 118.905 697.852 118.418 696.918 117.559C697.807 117.741 698.656 118.295 699.652 119.121Z" fill="#2DA751"/>
<path d="M714.531 135.319C713.909 134.857 713.225 134.09 712.555 132.956C713.202 133.397 713.836 134.205 714.531 135.319Z" fill="#2DA751"/>
<path d="M582.197 12.729C581.718 13.331 580.931 13.987 579.781 14.637C580.243 14.015 581.066 13.398 582.197 12.729Z" fill="#209F44"/>
<path d="M623.486 83.293C622.652 83.117 621.642 82.68 620.602 81.874C621.484 82.014 622.397 82.522 623.486 83.293Z" fill="#2DA751"/>
<path d="M616.854 51.674C617.34 51.085 618.126 50.41 619.283 49.764C618.82 50.392 617.987 50.99 616.854 51.674Z" fill="#2DA751"/>
<path d="M692.24 225.061C692.696 224.418 693.429 223.667 694.521 223.049C694.092 223.773 693.306 224.363 692.24 225.061Z" fill="#2DA751"/>
<path d="M809.6 123.019C810.14 123.008 810.63 123.323 811.11 123.639C810.81 123.956 810.52 124.272 809.94 124.628C809.61 124.226 809.57 123.786 809.6 123.019Z" fill="#209F44"/>
<path d="M615.606 77.25C615.043 77.035 614.379 76.543 613.787 75.691C614.408 75.878 614.955 76.426 615.606 77.25Z" fill="#2DA751"/>
<path d="M696.745 116.892C696.157 116.836 695.402 116.545 694.627 115.889C695.264 115.901 695.921 116.28 696.745 116.892Z" fill="#2DA751"/>
<path d="M712.518 132.334C711.958 132.104 711.324 131.586 710.748 130.716C711.352 130.924 711.898 131.485 712.518 132.334Z" fill="#2DA751"/>
<path d="M710.166 208.897C710.253 208.303 710.593 207.559 711.295 206.798C711.244 207.436 710.832 208.092 710.166 208.897Z" fill="#2DA751"/>
<path d="M682.424 108.364C682.03 108.429 681.44 108.263 680.695 107.82C681.104 107.74 681.666 107.937 682.424 108.364Z" fill="#2DA751"/>
<path d="M710.786 130.165C710.437 130.059 710.006 129.672 709.547 128.965C709.914 129.058 710.308 129.47 710.786 130.165Z" fill="#2DA751"/>
<path d="M703.512 122.378C703.071 122.363 702.507 122.096 701.994 121.495C702.494 121.482 702.941 121.805 703.512 122.378Z" fill="#2DA751"/>
<path d="M565.23 27.78C565.254 28.199 565.02 28.775 564.469 29.432C564.426 28.988 564.7 28.462 565.23 27.78Z" fill="#209F44"/>
<path d="M684.404 109.382C684.013 109.445 683.43 109.275 682.697 108.83C683.102 108.753 683.658 108.951 684.404 109.382Z" fill="#2DA751"/>
<path d="M563.163 30.708C563.21 31.145 562.997 31.742 562.458 32.422C562.39 31.96 562.647 31.414 563.163 30.708Z" fill="#209F44"/>
<path d="M615.135 53.028C615.221 52.673 615.575 52.22 616.258 51.75C616.192 52.132 615.798 52.531 615.135 53.028Z" fill="#2DA751"/>
<path d="M711.87 206.682C711.838 206.24 712.061 205.655 712.62 205.04C712.679 205.52 712.402 206.029 711.87 206.682Z" fill="#2DA751"/>
<path d="M612.854 55.672C612.842 55.24 613.076 54.661 613.648 54.081C613.69 54.561 613.395 55.044 612.854 55.672Z" fill="#2DA751"/>
<path d="M625.412 84.379C625.013 84.434 624.429 84.252 623.709 83.783C624.124 83.712 624.676 83.927 625.412 84.379Z" fill="#2DA751"/>
<path d="M613.826 75.123C613.476 75.007 613.039 74.607 612.605 73.875C612.984 73.975 613.364 74.408 613.826 75.123Z" fill="#2DA751"/>
<path d="M612.608 73.327C612.296 73.157 611.936 72.693 611.566 71.913C611.892 72.076 612.225 72.555 612.608 73.327Z" fill="#2DA751"/>
<path d="M708.773 210.582C708.773 210.163 709.027 209.607 709.606 209.021C709.629 209.476 709.328 209.959 708.773 210.582Z" fill="#2DA751"/>
<path d="M695.17 223.061C695.263 222.703 695.629 222.248 696.334 221.803C696.263 222.196 695.853 222.58 695.17 223.061Z" fill="#2DA751"/>
<path d="M699.068 219.994C699.171 219.641 699.554 219.198 700.264 218.733C700.177 219.109 699.763 219.507 699.068 219.994Z" fill="#2DA751"/>
<path d="M584.142 11.618C584.158 11.851 583.846 12.158 583.2 12.534C583.182 12.3 583.497 11.996 584.142 11.618Z" fill="#209F44"/>
<path d="M318.452 18.469C318.475 18.728 318.029 18.825 317.805 18.781C317.577 18.449 317.662 18.191 318.009 17.856C318.266 17.904 318.347 18.057 318.452 18.469Z" fill="#9F9B99"/>
<path d="M612.087 56.896C611.951 56.686 612.046 56.337 612.4 55.867C612.544 56.083 612.431 56.421 612.087 56.896Z" fill="#2DA751"/>
<path d="M575.211 17.648C575.26 17.842 575.052 18.132 574.589 18.522C574.541 18.33 574.747 18.038 575.211 17.648Z" fill="#209F44"/>
<path d="M614.181 53.996C614.072 53.752 614.19 53.403 614.613 53.054C614.748 53.332 614.578 53.612 614.181 53.996Z" fill="#2DA751"/>
<path d="M875.76 52.672C875.78 52.498 876.04 52.388 876.39 52.432C876.32 52.636 876.16 52.686 875.76 52.672Z" fill="#209F44"/>
<path d="M571.065 21.467C571.149 21.708 570.961 22.043 570.477 22.439C570.385 22.187 570.589 21.874 571.065 21.467Z" fill="#209F44"/>
<path d="M562.035 32.479C562.161 32.703 562.031 33.047 561.646 33.518C561.52 33.295 561.65 32.947 562.035 32.479Z" fill="#209F44"/>
<path d="M564.049 29.484C564.167 29.709 564.025 30.051 563.624 30.513C563.506 30.289 563.648 29.945 564.049 29.484Z" fill="#209F44"/>
<path d="M570.043 22.449C570.133 22.693 569.952 23.034 569.474 23.436C569.375 23.181 569.574 22.864 570.043 22.449Z" fill="#209F44"/>
<path d="M701.803 120.889C701.575 121.017 701.226 120.944 700.867 120.569C701.184 120.306 701.459 120.446 701.803 120.889Z" fill="#2DA751"/>
<path d="M685.861 228.712C685.858 228.474 686.181 228.19 686.838 227.871C686.843 228.112 686.516 228.389 685.861 228.712Z" fill="#2DA751"/>
<path d="M696.863 221.79C696.811 221.57 697.023 221.272 697.517 220.933C697.575 221.165 697.351 221.439 696.863 221.79Z" fill="#2DA751"/>
<path d="M697.978 220.905C697.906 220.662 698.092 220.34 698.576 219.999C698.661 220.262 698.449 220.544 697.978 220.905Z" fill="#2DA751"/>
<path d="M706.843 212.748C706.776 212.544 706.965 212.24 707.409 211.835C707.476 212.038 707.288 212.342 706.843 212.748Z" fill="#2DA751"/>
<path d="M715.11 201.896C714.965 201.689 715.046 201.339 715.38 200.86C715.534 201.072 715.435 201.411 715.11 201.896Z" fill="#2DA751"/>
<path d="M700.776 120.069C700.541 120.185 700.191 120.06 699.783 119.642C700.037 119.509 700.349 119.668 700.776 120.069Z" fill="#2DA751"/>
<path d="M108.402 56.22C95.2698 56.601 82.0248 56.601 68.4398 56.601C68.4398 83.325 68.4398 109.99 68.5568 137.101C67.9678 135.988 66.6648 134.433 66.6488 132.866C66.4968 117.212 66.5568 101.556 66.5558 85.9C66.5558 75.834 66.5558 65.769 66.5558 54.588C76.6518 54.435 86.4908 54.111 96.3248 54.225C100.319 54.271 104.301 55.273 108.402 56.22Z" fill="#46AC62"/>
<path d="M38.0786 220.202C39.1306 224.16 39.1226 224.3 37.1086 232.293C36.3476 234.407 35.9006 236.059 35.4546 237.712C35.4546 237.712 35.5346 237.704 35.1876 237.787C34.3836 239.489 33.9276 241.108 33.4716 242.727C33.4716 242.727 33.5446 242.701 33.1766 242.684C32.3576 244.016 31.9066 245.365 31.4556 246.714C31.4556 246.714 31.5306 246.702 31.2736 246.671C30.8456 246.651 30.6746 246.663 30.5176 246.694C30.5316 246.713 30.5556 246.753 30.4046 246.374C29.9726 242.963 29.6926 239.931 29.7236 236.611C30.5656 233.261 31.6586 230.168 31.4886 227.147C31.2646 223.193 30.6446 219.005 26.8066 216.492C27.5436 215.778 28.0406 215.245 28.5376 214.712C28.5376 214.712 28.5036 214.677 28.8326 214.777C29.6256 214.481 30.0906 214.086 30.5556 213.69C30.5556 213.69 30.4996 213.672 30.8936 213.73C33.9176 213.115 36.5466 212.444 39.4976 211.69C38.6136 213.145 37.9686 214.207 37.0276 215.757C39.0646 215.757 40.5546 215.757 42.0446 215.757C42.0876 215.988 42.1306 216.218 42.1736 216.449C38.9656 217.834 35.7586 219.22 32.5506 220.605C32.6956 220.928 32.8406 221.251 32.9856 221.575C34.6836 221.117 36.3806 220.66 38.0786 220.202Z" fill="#209F44"/>
<path d="M18.5439 225.734C18.9949 220.593 19.0249 215.879 15.9809 210.96C12.7299 205.705 13.8999 204.024 19.4049 201.268C19.4889 204.275 19.3529 207.013 19.2169 209.751C19.6679 209.769 20.1179 209.787 20.5689 209.805C20.5689 207.736 20.5689 205.667 20.5689 203.882C21.8769 205.473 23.2099 207.096 24.5429 208.718C24.5429 208.718 24.5369 208.648 24.2159 208.958C24.1019 211.698 24.3089 214.13 24.2379 216.614C23.7729 216.687 23.5859 216.708 22.9819 216.678C18.1659 218.336 21.0109 221.957 20.4719 224.669C20.5029 224.661 20.4689 224.605 20.1799 224.649C19.4409 225.04 18.9929 225.387 18.5439 225.734Z" fill="#209F44"/>
<path d="M18.5369 225.713C18.9919 225.387 19.4409 225.04 20.3179 225.017C18.1609 228.309 15.9679 231.385 16.3249 235.689C16.3989 236.583 15.5019 238.105 14.6909 238.429C11.4989 239.701 12.2729 241.812 12.9189 244.255C12.6069 244.58 12.4819 244.71 12.3569 244.84C11.9449 243.666 11.4029 242.519 11.1479 241.312C10.5449 238.445 13.3329 234.568 8.59389 232.908C8.42689 232.85 8.54291 231.982 8.73791 231.001C9.21491 230.29 9.38091 230.011 9.44891 229.674C9.77991 229.619 10.0659 229.476 10.7519 228.98C12.0029 228.395 12.8079 228.074 13.6119 227.753C13.6119 227.753 13.5269 227.739 13.8559 227.765C14.9449 227.414 15.7039 227.038 16.4629 226.662C16.4629 226.662 16.4959 226.687 16.7899 226.629C17.5779 226.285 18.0729 225.999 18.5679 225.713C18.5679 225.713 18.5319 225.692 18.5369 225.713Z" fill="#D8E4DA"/>
<path d="M38.1707 220.243C36.3797 220.661 34.6817 221.118 32.9837 221.576C32.8387 221.252 32.6937 220.929 32.5487 220.606C35.7567 219.221 38.9647 217.835 42.1727 216.45C42.1297 216.219 42.0857 215.989 42.0427 215.758C40.5527 215.758 39.0627 215.758 37.0257 215.758C37.9667 214.208 38.6117 213.146 39.4957 211.691C36.5457 212.445 33.9157 213.116 30.8887 213.76C33.8377 212.365 37.1857 210.999 41.2237 209.351C40.0087 215.321 43.9107 212.912 46.2787 213.159C47.0827 217.788 42.5567 216.995 40.3617 219.218C39.3297 219.859 38.8287 220.168 38.3277 220.476C38.3277 220.476 38.2647 220.282 38.1707 220.243Z" fill="#D8E4DA"/>
<path d="M141.409 62.814C132.25 58.137 122.233 57.669 111.893 56.778C117.318 56.793 123.185 56.478 128.931 57.168C133.273 57.69 137.462 59.496 142.043 60.825C142.348 60.199 142.826 59.22 143.458 57.938C143.628 59.212 143.644 60.788 143.213 62.609C142.313 62.841 141.861 62.828 141.409 62.814Z" fill="#46AC62"/>
<path d="M68.7852 137.895C87.5622 137.31 106.603 137.055 126.065 136.844C125.477 137.486 124.47 138.604 123.458 138.608C105.628 138.687 87.7981 138.631 69.9681 138.586C69.6621 138.585 69.3562 138.35 68.7852 137.895Z" fill="#209F44"/>
<path d="M29.412 236.899C29.692 239.931 29.973 242.963 30.196 246.235C30.058 246.747 29.976 247.019 29.894 247.291C30.097 247.086 30.301 246.88 30.504 246.675C30.675 246.663 30.845 246.651 31.273 246.632C30.97 247.741 30.411 248.856 29.852 249.971C29.455 249.831 29.059 249.691 28.662 249.551C28.808 246.687 28.954 243.823 29.1 240.959C28.723 240.878 28.346 240.798 27.969 240.718C27.159 242.049 26.348 243.381 25.144 244.802C24.751 244.891 24.401 244.592 24.488 244.237C26.503 241.773 24.977 237.271 29.412 236.899Z" fill="#D8E4DA"/>
<path d="M24.4058 208.37C23.2088 207.096 21.8758 205.473 20.5688 203.882C20.5688 205.667 20.5688 207.736 20.5688 209.805C20.1178 209.787 19.6668 209.769 19.2168 209.751C19.3528 207.013 19.4878 204.275 19.7098 201.159C20.7118 201.559 21.9238 202.169 22.4768 203.151C23.3148 204.639 23.6948 206.385 24.4058 208.37Z" fill="#D8E4DA"/>
<path d="M24.5163 216.562C24.3093 214.13 24.1023 211.698 24.1813 208.953C25.6483 210.465 26.8283 212.29 28.2733 214.414C28.0403 215.246 27.5433 215.779 26.4633 216.483C25.4253 216.624 24.9703 216.593 24.5163 216.562Z" fill="#D8E4DA"/>
<path d="M23.567 246.735C21.51 247.74 19.466 249.924 17.352 246.342C17.338 245.884 17.641 245.538 17.974 245.714C19.911 246.03 21.515 246.171 23.23 246.417C23.343 246.523 23.567 246.735 23.567 246.735Z" fill="#D8E4DA"/>
<path d="M35.8047 237.68C35.9017 236.06 36.3477 234.408 37.1437 232.592C37.0467 234.169 36.6007 235.908 35.8047 237.68Z" fill="#D8E4DA"/>
<path d="M33.7812 242.551C33.9282 241.109 34.3852 239.49 35.1902 237.747C35.0562 239.207 34.5732 240.79 33.7812 242.551Z" fill="#D8E4DA"/>
<path d="M31.8047 246.656C31.9057 245.365 32.3567 244.016 33.1697 242.646C33.0727 243.949 32.6137 245.273 31.8047 246.656Z" fill="#D8E4DA"/>
<path d="M17.1859 246.056C15.6219 245.961 14.2089 245.692 12.5769 245.131C12.4829 244.709 12.6079 244.579 13.2199 244.44C15.0179 244.8 16.3289 245.169 17.6399 245.537C17.6399 245.537 17.3369 245.883 17.1859 246.056Z" fill="#D8E4DA"/>
<path d="M13.2562 227.738C12.8082 228.073 12.0042 228.394 10.8652 228.763C11.3212 228.45 12.1102 228.087 13.2562 227.738Z" fill="#209F44"/>
<path d="M16.1224 226.678C15.7054 227.038 14.9464 227.414 13.8594 227.808C14.2814 227.448 15.0304 227.071 16.1224 226.678Z" fill="#209F44"/>
<path d="M24.916 245.051C24.756 245.66 24.4281 246.111 23.8331 246.649C23.5651 246.735 23.3401 246.523 23.2891 246.162C23.6251 245.398 24.0131 244.996 24.4001 244.593C24.4001 244.593 24.75 244.892 24.916 245.051Z" fill="#D8E4DA"/>
<path d="M18.2651 225.728C18.0721 225.999 17.5771 226.285 16.7891 226.609C16.9841 226.345 17.4731 226.044 18.2651 225.728Z" fill="#209F44"/>
<path d="M38.6641 220.516C38.8291 220.168 39.3301 219.859 40.1351 219.476C39.9601 219.785 39.4801 220.17 38.6641 220.516Z" fill="#209F44"/>
<path d="M30.2209 213.46C30.0909 214.086 29.6259 214.482 28.8359 214.802C28.9689 214.227 29.4279 213.727 30.2209 213.46Z" fill="#D8E4DA"/>
<path d="M9.2429 229.804C9.3819 230.011 9.21589 230.29 8.73589 230.633C8.61689 230.435 8.7879 230.161 9.2429 229.804Z" fill="#209F44"/>
<path d="M141.496 63.198C141.861 62.826 142.313 62.84 143.092 62.964C148.418 68.679 153.417 74.283 158.48 80.229C149.109 81.152 143.136 75.17 141.496 63.198Z" fill="#9F9B99"/>
<path d="M172.26 41.487C171.009 41.377 170.089 41.199 168.996 40.988C169.127 42.845 169.237 44.394 169.346 45.944C168.83 46.364 168.313 46.785 167.797 47.206C166.673 45.872 165.549 44.538 164.46 43.247C164.573 43.116 164.078 43.692 163.636 44.208C161.133 40.41 155.682 37.56 160.433 31.667C160.848 31.895 161.847 32.444 163.004 33.079C163.382 31.745 163.744 30.471 164.105 29.197C164.498 29.167 164.891 29.137 165.284 29.107C165.737 31.443 165.842 33.93 166.766 36.062C167.381 37.484 169.157 38.407 170.424 39.543C171.135 40.18 171.867 40.795 172.26 41.487Z" fill="#4F504C"/>
<path d="M204.552 60.62C205.734 59.838 206.917 59.055 208.459 58.034C208.969 58.639 209.625 59.415 210.464 60.411C211.143 59.617 211.804 58.844 212.041 58.567C213.966 60.526 215.745 62.336 217.151 63.767C215.329 66.042 213.237 68.797 210.954 71.384C210.504 71.894 209.319 71.756 208.473 71.916C208.358 71.187 207.961 70.347 208.195 69.755C208.537 68.889 209.331 68.201 210.548 66.653C208.275 66.903 206.804 67.064 205.611 67.196C205.259 65.268 204.902 63.32 204.526 61.021C204.507 60.671 204.552 60.62 204.552 60.62Z" fill="#4F504C"/>
<path d="M197.121 103.966C195.406 104.508 193.888 104.79 192.144 105.114C190.718 103.784 188.496 101.712 185.988 99.373C186.083 98.504 186.257 96.91 186.394 95.657C188.319 94.904 190.482 94.056 193.358 92.93C193.804 93.153 195.444 93.972 196.482 94.491C196.77 97.66 197.044 100.683 197.121 103.966Z" fill="#4F504C"/>
<path d="M223.628 107.064C225.339 107.886 226.718 108.696 228.186 109.558C226.316 111.925 224.495 114.23 222.874 116.281C221.299 115.07 219.425 113.63 216.852 111.651C219.022 110.102 221.159 108.576 223.628 107.064Z" fill="#4F504C"/>
<path d="M204.484 60.694C204.343 60.536 204.227 60.356 204.111 60.176C204.218 60.222 204.326 60.268 204.493 60.467C204.554 60.62 204.509 60.671 204.484 60.694Z" fill="#4F504C"/>
<path d="M359.102 58.848C359.494 110.187 359.491 161.54 359.528 212.893C359.529 214.85 359.914 216.806 360.287 219.122C359.366 220.986 358.543 223.444 357.148 223.83C351.422 225.414 345.567 227.02 339.678 227.42C325.91 228.357 312.075 228.546 298.629 224.639C296.616 224.054 295.042 221.954 293.295 220.171C293.717 217.751 294.448 215.717 294.451 213.682C294.516 162.351 294.504 111.019 294.513 59.228C315.911 62.873 337.308 63.677 359.102 58.848ZM330.537 122.636C336.061 109.821 341.584 97.006 347.247 83.866C339.056 84.423 331.357 84.947 324.531 85.411C318.308 103.881 312.412 121.377 306.295 139.528C313.341 139.127 319.227 138.792 325.734 138.422C321.761 158.535 317.902 178.066 314.043 197.597C314.585 197.803 315.126 198.009 315.667 198.215C320.631 186.184 325.595 174.152 331.143 161.647C336.486 149.16 341.828 136.674 347.526 123.359C341.176 123.359 335.898 123.359 330.537 122.636Z" fill="#068C4C"/>
<path d="M24.488 244.238C24.014 244.996 23.627 245.398 23.179 246.056C21.514 246.171 19.91 246.03 17.973 245.714C16.329 245.17 15.018 244.801 13.407 244.247C12.274 241.812 11.5 239.701 14.692 238.429C15.503 238.105 16.4 236.583 16.326 235.689C15.968 231.385 18.162 228.309 20.608 224.973C20.469 224.605 20.503 224.661 20.857 224.591C21.94 221.923 22.669 219.326 23.399 216.729C23.586 216.708 23.774 216.687 24.238 216.614C24.971 216.593 25.425 216.624 26.223 216.664C30.645 219.006 31.265 223.194 31.488 227.148C31.659 230.169 30.565 233.262 29.723 236.611C24.978 237.272 26.503 241.774 24.488 244.238Z" fill="#6C8271"/>
<path d="M22.982 216.678C22.669 219.326 21.9401 221.924 20.8251 224.599C21.0111 221.958 18.166 218.336 22.982 216.678Z" fill="#D8E4DA"/>
<path d="M30.5156 246.694C30.2986 246.88 30.0956 247.086 29.8926 247.291C29.9746 247.019 30.0556 246.747 30.3456 246.613C30.5536 246.753 30.5296 246.713 30.5156 246.694Z" fill="#209F44"/>
<path d="M330.559 162.12C325.595 174.151 320.631 186.183 315.666 198.214C315.125 198.008 314.584 197.802 314.043 197.596C317.902 178.065 321.76 158.534 325.734 138.421C319.226 138.791 313.34 139.126 306.295 139.527C312.411 121.376 318.307 103.88 324.531 85.41C331.357 84.946 339.056 84.422 347.247 83.865C341.583 97.005 336.06 109.82 330.279 123.218C328.042 128.143 326.062 132.486 323.675 137.722C327.411 137.3 329.615 137.051 332.102 136.771C331.572 145.48 331.066 153.8 330.559 162.12Z" fill="#E85A17"/>
<path d="M330.852 161.883C331.067 153.8 331.573 145.48 332.103 136.771C329.616 137.051 327.412 137.3 323.676 137.722C326.063 132.486 328.043 128.143 330.322 123.579C335.899 123.358 341.176 123.358 347.526 123.358C341.829 136.673 336.486 149.159 330.852 161.883Z" fill="#F39F27"/>
</svg>
